<?xml version="1.0" ?><svg style="enable-background:new 0 0 24 24;" version="1.1" viewBox="0 0 24 24" xml:space="preserve" xmlns="http://www.w3.org/2000/svg" xmlns:xlink="http://www.w3.org/1999/xlink"><style type="text/css">
	.st0{opacity:0.2;fill:none;stroke:#000000;stroke-width:5.000000e-02;stroke-miterlimit:10;}
</style><g id="grid_system"/><g id="_icons"><g><path d="M20.4,14.1l-3.2-1.3l-1.3-3.2C15.8,9.2,15.4,9,15,9s-0.8,0.2-0.9,0.6l-1.3,3.2l-3.2,1.3C9.2,14.2,9,14.6,9,15    s0.2,0.8,0.6,0.9l3.2,1.3l1.3,3.2c0.2,0.4,0.5,0.6,0.9,0.6s0.8-0.2,0.9-0.6l1.3-3.2l3.2-1.3c0.4-0.2,0.6-0.5,0.6-0.9    S20.8,14.2,20.4,14.1z M16.1,15.5c-0.2,0.1-0.4,0.3-0.5,0.5L15,17.4l-0.5-1.3c-0.1-0.2-0.3-0.4-0.5-0.5L12.6,15l1.3-0.5    c0.2-0.1,0.4-0.3,0.5-0.5l0.5-1.3l0.5,1.3c0.1,0.2,0.3,0.4,0.5,0.5l1.3,0.5L16.1,15.5z"/><path d="M10,10.7c0-0.4-0.2-0.8-0.6-0.9L7.9,9.1L7.2,7.6C7.1,7.2,6.7,7,6.3,7C5.9,7,5.5,7.2,5.4,7.6L4.7,9.1L3.2,9.8    c-0.4,0.2-0.6,0.5-0.6,0.9s0.2,0.8,0.6,0.9l1.5,0.7l0.7,1.5c0.2,0.4,0.5,0.6,0.9,0.6c0.4,0,0.8-0.2,0.9-0.6l0.7-1.5l1.5-0.7    C9.8,11.5,10,11.1,10,10.7z M6.3,10.9c-0.1-0.1-0.1-0.2-0.2-0.2c0.1-0.1,0.2-0.1,0.2-0.2c0.1,0.1,0.1,0.2,0.2,0.2    C6.4,10.8,6.4,10.8,6.3,10.9z"/><path d="M14.2,6.4l0.9,0.4l0.4,0.9c0.2,0.4,0.5,0.6,0.9,0.6s0.8-0.2,0.9-0.6l0.4-0.9l0.9-0.4c0.4-0.2,0.6-0.5,0.6-0.9    s-0.2-0.8-0.6-0.9l-0.9-0.4l-0.4-0.9c-0.2-0.4-0.5-0.6-0.9-0.6s-0.8,0.2-0.9,0.6l-0.4,0.9l-0.9,0.4c-0.4,0.2-0.6,0.5-0.6,0.9    S13.9,6.3,14.2,6.4z"/></g></g></svg>